<svg xmlns="http://www.w3.org/2000/svg" width="33.506" height="25.914" viewBox="0 0 33.506 25.914">
  <g id="ic-choose-files" transform="translate(0 25.914) rotate(-90)">
    <path id="Path_1619" data-name="Path 1619" d="M24.608,19.177,23.6,18.164A1.64,1.64,0,0,1,23.112,17V3.5A3.506,3.506,0,0,0,19.61,0H3.425c-.018,0-.034.006-.05.006A3.5,3.5,0,0,0,0,3.5V27.162A3.51,3.51,0,0,0,2.581,30.54L12.9,33.355a4.2,4.2,0,0,0,5-2.488h4.508a3.506,3.506,0,0,0,3.5-3.5V22.327a4.426,4.426,0,0,0-1.3-3.15Zm-1.5,8.188a.7.7,0,0,1-.7.7H18.372l-.164-.327V7.093a4.212,4.212,0,0,0-3.1-4.054L14.238,2.8h5.371a.7.7,0,0,1,.7.7V17a4.426,4.426,0,0,0,1.3,3.15l1.012,1.013a1.64,1.64,0,0,1,.484,1.169v5.038Z" fill="#efefef"/>
  </g>
</svg>
